<?xml version="1.0" encoding="UTF-8"?>
<svg id="Layer_1" data-name="Layer 1" xmlns="http://www.w3.org/2000/svg" viewBox="0 0 673.33 143.47">
  <defs>
    <style>
      .cls-1 {
        fill: #fcfcfc;
      }

      .cls-2 {
        fill: #6d64a8;
      }
    </style>
  </defs>
  <g>
    <path class="cls-1" d="M52.75,27.05c-28.29,12.02-37,47.89-24.17,72.41,7.68,14.67,23.9,23.52,40.32,19.75,10.18-2.34,18.23-8.69,26.16-15.12l35.71-34.43.21,29.05c-10.62,11.57-21.54,22.4-34.14,31.79-8.4,6.6-17.62,10.57-28.3,11.57-27.19,2.55-51.86-12.28-62.61-37.27-7.72-17.94-7.65-37.44-1.12-55.92C12.08,28.22,27.35,11.91,48.35,4.96c7.44-2.46,15.04-2.98,22.9-3.42C93.44.29,115.1.35,137.42.22L175.39,0c13.93-.08,26.64,4.77,37.13,13.64,15.67,13.25,23.43,31.52,24.42,51.88,1.87,38.57-24.06,70.75-62.01,77.35l-77.05.59,25.99-22.64c15.74.07,30.3.16,45.88-.62,21.56-2.19,39.51-18.29,43.29-39.83,2.15-12.25.07-24.58-5.14-35.53-5.77-12.11-16.52-19.32-29.78-20.9-11.84-1.41-23.25-.94-35.39-.83l-71.13.66c-6.33.06-12.67.64-18.85,3.27Z"/>
    <path class="cls-1" d="M526.18,82.63c-5.08.68-9.44.39-14.25.12l-39.13-49.34-.34,49.41-15.22.09-.06-73.3,14.89-.13,38.54,48.6.27-48.74h15.27s.03,73.28.03,73.28Z"/>
    <path class="cls-1" d="M335.96,73.59c-9.69,15.28-44.65,12.86-55.69,0-1.31-4.08-.13-9.01-.27-13.79,8.83,6.78,18.18,11.48,29.18,11.74,4.32.1,8.59-.47,11.94-3.07,1.95-1.52,2.41-3.86,2.13-5.93-1.79-13.04-42.3-9.82-40.79-35.58.38-6.56,4.5-12.71,11.45-15.79,13.06-5.77,28.87-4.07,40.62,4.16.42,5.24.23,9.82.1,15.11-8.43-7.72-19.59-12.14-30.65-9.5-2.77.66-4.96,2.75-5.59,4.82-2.98,9.8,17.83,11.76,30.5,19.44,9.82,5.96,13.33,18.49,7.07,28.37Z"/>
    <path class="cls-2" d="M399.97,34.62c-.67-1.38-1.83-1.91-2.49-1.83-.91.11-1.88.7-2.4,1.78l-23.57,48.07c-5.87-.11-11.13.33-16.91-.4l33.9-70.55,18.19-.03,33.41,70.59c-5.63.9-10.95.31-16.89.27l-23.24-47.9Z"/>
    <g>
      <path class="cls-1" d="M561.34,65.96c6.35,12.12,26.05,7.05,34.35.08.45,4.47.23,8.04.13,12.41-8.56,5.17-18.81,7.14-28.7,5.13-13.48-2.73-22.25-14.22-22.1-27.77.16-15.58,11.92-27.39,27.46-27.79,17.15-.45,28.07,12.02,28.6,28.38l-39.74,9.56ZM586.07,49.21c-1.66-5.53-5.28-8.22-8.84-9.25-4.5-1.3-8.96-.66-12.25,2.3-3.8,3.42-5.32,8.37-5.21,13.62l26.3-6.67Z"/>
      <path class="cls-1" d="M673.33,82.51c-5.68,1.01-10.65.18-16.21.47l-12.72-17.03-12.72,16.93-16.15-.18,20.42-27.13-19.53-26.2,16.54-.16,11.61,15.73,11.72-15.66c5.42-.19,10.6-.3,16.25.08l-19.43,25.89,20.23,27.28Z"/>
    </g>
  </g>
  <g>
    <path class="cls-1" d="M310.06,135.84c-2.96,4.1-8.7-9.13-11.87-10.67-3.92-1.38-9.27.24-13.89-.46l-.53,11.3c-.2.61-2.78.72-2.78.04l-.05-35.51c9.32.05,27.56-3.08,28.99,10.38.65,6.07-2.35,10.87-8.55,13.06l8.67,11.86ZM298.33,121.89c5.84-.7,9.02-5.12,8.65-10.12-.83-11.14-15.05-8.52-23.02-8.63l.15,18.96c4.95-.06,9.38.37,14.22-.21Z"/>
    <path class="cls-1" d="M500.09,134.04c4.27.56,7.55-.63,10.49-3.13.74-.63,2.24,1.22,1.64,1.86-2.88,3.05-6.86,4.08-10.97,4.01-7.54-.13-13.33-5.4-13.93-12.36-.61-7.14,3.5-13.75,11.02-14.85,4.29-.63,8.49.08,11.7,2.97,2.82,2.54,4.84,6.64,4.15,11.03l-23.84.25c-.04,5.53,4.22,9.51,9.74,10.23ZM511.57,121.28c-1.06-6.99-6.15-9.71-11.44-9.42-4.9.27-9.32,3.61-9.9,9.67l21.34-.25Z"/>
    <path class="cls-1" d="M335.8,134.1c8.6.7,9.31-4.92,11.34-2.72,1.71,1.85-4.44,5.97-12.41,5.19-7.45-.73-12.51-6.63-12.35-14.01.17-7.86,6.04-13.39,13.88-13.28s14.16,6.46,13.09,14.42l-23.89.11c0,5.68,4.5,9.82,10.34,10.29ZM346.73,121.48c-.69-6.4-5.64-9.77-10.91-9.68s-10.23,3.98-10.25,9.76l21.16-.08Z"/>
    <path class="cls-1" d="M367.56,136.36c-4.32-.84-6.68-3.78-6.71-7.46-.09-10.47,14.98-6.29,19.62-8.1,1.48-1.13.15-5.04-.96-6.42-3.15-3.89-10.69-2.99-15.23-.03-.9.59-1.59.63-2.06-.22-1.53-2.74,9.3-6.77,16.95-3.63,3.2,1.31,4.78,4.85,4.72,8.23-.1,6.1.24,12.11-.21,17.74-1.01.23-2.03.32-2.18-.3-.24-.97.11-1.8-.64-3.48-3.34,3.89-8.19,4.66-13.29,3.67ZM377.31,132.89c3.49-1.99,4.71-5.95,3.25-9.39-5.54.29-16.01-1.61-16.7,4.67-.26,2.36.94,4.51,3.44,5.5,3.23,1.27,6.97.96,10.01-.78Z"/>
    <path class="cls-1" d="M544.08,135.03c-7.91,3.89-18.89.25-18.84-2.28.08-4.19,6.37,4.27,16.55.57,1.94-.71,2.79-2.7,2.69-4.38-.1-1.81-1.52-3.1-3.55-3.54l-9.21-1.97c-3.34-.71-5.52-2.81-5.77-5.81s1.17-5.89,4.37-7.13c5.02-1.95,10.82-1.46,15.64,1.08.78.41-.38,2.59-1.13,2.26-6.57-2.93-16.08-3.02-16,3.01.03,1.92,1.58,3.52,3.62,3.97l9.73,2.16c2.74.61,4.77,2.39,5.17,4.68.47,2.7-.24,5.88-3.29,7.38Z"/>
    <path class="cls-1" d="M447.3,133.45c3.35,2.03,6.32-.29,7.61-.27.49,0,1.01,1.18.67,1.65-1.17,1.65-3.37,1.64-5.33,1.86-4.35.48-7.82-2.35-7.87-6.69l-.19-17.3c-.02-1.41-4.54-.49-4.92-1.29-.21-.44-.2-1.17-.01-1.49.48-.82,3.14.21,4.36-.66,1.63-1.16.02-5.13,1.22-5.6.47-.19,1.48-.17,1.95.01,1.13.43-.65,5.63,1.61,5.74l7.06.31c.63.03.71.83.71,1.2,0,.35-.18.82-.97.85l-7.82.27c.22,5.09-1.69,19.22,1.92,21.41Z"/>
    <rect class="cls-1" x="383.59" y="115.86" width="38.39" height="3.05" transform="translate(285.23 520.13) rotate(-89.98)"/>
    <path class="cls-1" d="M424.73,134.87c0,1.35-.47,1.8-1.11,1.79s-1.67-.21-1.67-1.4l-.04-24.01c0-1.13.49-1.58,1.02-1.68,1.08-.21,1.86.28,1.85,1.68l-.06,23.62Z"/>
    <rect class="cls-1" x="469.74" y="109.61" width="3" height="26.77"/>
    <circle class="cls-1" cx="423.4" cy="101.06" r="2.22"/>
    <circle class="cls-1" cx="471.24" cy="101.03" r="2.2"/>
  </g>
</svg>