<?xml version="1.0" encoding="UTF-8"?>
<svg id="Layer_1" data-name="Layer 1" xmlns="http://www.w3.org/2000/svg" viewBox="0 0 237.02 143.46">
  <defs>
    <style>
      .cls-1 {
        fill: #fcfcfc;
      }
    </style>
  </defs>
  <path class="cls-1" d="M52.73,27.05c-28.29,12.02-37,47.89-24.17,72.41,7.68,14.67,23.9,23.52,40.32,19.75,10.18-2.34,18.23-8.69,26.16-15.12l35.71-34.43.21,29.05c-10.62,11.57-21.54,22.4-34.14,31.79-8.4,6.6-17.62,10.57-28.3,11.57-27.19,2.55-51.86-12.28-62.61-37.27-7.72-17.94-7.65-37.44-1.12-55.92C12.06,28.22,27.33,11.91,48.33,4.96c7.44-2.46,15.04-2.98,22.9-3.42C93.42.29,115.08.35,137.4.22L175.37,0c13.93-.08,26.64,4.77,37.13,13.64,15.67,13.25,23.43,31.52,24.42,51.88,1.87,38.57-24.06,70.75-62.01,77.35l-77.05.59,25.99-22.64c15.74.07,30.3.16,45.88-.62,21.56-2.19,39.51-18.29,43.29-39.83,2.15-12.25.07-24.58-5.14-35.53-5.77-12.11-16.52-19.32-29.78-20.9-11.84-1.41-23.25-.94-35.39-.83l-71.13.66c-6.33.06-12.67.64-18.85,3.27h0Z"/>
</svg>